<?xml version="1.0" encoding="UTF-8"?>
<svg id="Capa_1" data-name="Capa 1" xmlns="http://www.w3.org/2000/svg" viewBox="0 0 50.48 105.55">
  <defs>
    <style>
      .cls-1 {
        fill: #cb0017;
      }

      .cls-1, .cls-2 {
        opacity: .1;
        stroke-width: 0px;
      }

      .cls-2 {
        fill: #000;
      }
    </style>
  </defs>
  <path class="cls-1" d="M7.36,31.41v6.31h35.76v-6.31s-35.76,0-35.76,0ZM20.89,4.51c0,2.49,2.02,4.5,4.51,4.5s4.5-2.02,4.5-4.5S27.89,0,25.4,0s-4.51,2.02-4.51,4.51h0ZM0,19.86c0,4.07,3.3,7.36,7.36,7.36s7.36-3.3,7.36-7.36-3.3-7.36-7.36-7.36S0,15.79,0,19.86h0ZM17.88,19.86c0,4.07,3.3,7.36,7.36,7.36s7.36-3.3,7.36-7.36-3.3-7.36-7.36-7.36-7.36,3.3-7.36,7.36h0ZM35.76,19.86c0,4.07,3.3,7.36,7.36,7.36s7.36-3.3,7.36-7.36-3.29-7.36-7.36-7.36-7.36,3.3-7.36,7.36h0Z"/>
  <path class="cls-2" d="M50.48,47.18v56.81h-12.45v-8h-.22c-3.11,5.78-10.01,9.56-16.35,9.56C6.45,105.55,0,97.99,0,82.98v-35.8h12.68v34.57c0,10.12,4.11,13.79,11.01,13.79,10.56,0,14.12-6.78,14.12-15.68v-32.68h12.68-.01Z"/>
</svg>